HIERARCHY
ROOT Hips
{
	OFFSET 0.000000 0.000000 0.000000
	CHANNELS 6 Xposition Yposition Zposition Zrotation Yrotation Xrotation 
	JOINT LHipJoint
	{
		OFFSET 0.000000 0.000000 0.000000
		CHANNELS 3 Zrotation Yrotation Xrotation
		JOINT LeftUpLeg
		{
			OFFSET 1.363060 -1.794630 0.839290
			CHANNELS 3 Zrotation Yrotation Xrotation
			JOINT LeftLeg
			{
				OFFSET 2.448110 -6.726130 0.000000
				CHANNELS 3 Zrotation Yrotation Xrotation
				JOINT LeftFoot
				{
					OFFSET 2.562200 -7.039590 0.000000
					CHANNELS 3 Zrotation Yrotation Xrotation
					JOINT LeftToeBase
					{
						OFFSET 0.157640 -0.433110 2.322550
						CHANNELS 3 Zrotation Yrotation Xrotation
						End Site
						{
							OFFSET 0.000000 0.000000 0.000000
						}
					}
				}
			}
		}
	}
	JOINT RHipJoint
	{
		OFFSET 0.000000 0.000000 0.000000
		CHANNELS 3 Zrotation Yrotation Xrotation
		JOINT RightUpLeg
		{
			OFFSET -1.305520 -1.794630 0.839290
			CHANNELS 3 Zrotation Yrotation Xrotation
			JOINT RightLeg
			{
				OFFSET -2.542530 -6.985550 0.000000
				CHANNELS 3 Zrotation Yrotation Xrotation
				JOINT RightFoot
				{
					OFFSET -2.568260 -7.056230 0.000000
					CHANNELS 3 Zrotation Yrotation Xrotation
					JOINT RightToeBase
					{
						OFFSET -0.164730 -0.452590 2.363150
						CHANNELS 3 Zrotation Yrotation Xrotation
						End Site
						{
							OFFSET 0.000000 0.000000 0.000000
						}
					}
				}
			}
		}
	}
	JOINT LowerBack
	{
		OFFSET 0.000000 0.000000 0.000000
		CHANNELS 3 Zrotation Yrotation Xrotation
		JOINT Spine
		{
			OFFSET 0.028270 2.035590 -0.193380
			CHANNELS 3 Zrotation Yrotation Xrotation
			JOINT Spine1
			{
				OFFSET 0.056720 2.048850 -0.042750
				CHANNELS 3 Zrotation Yrotation Xrotation
				JOINT Neck
				{
					OFFSET 0.000000 0.000000 0.000000
					CHANNELS 3 Zrotation Yrotation Xrotation
					JOINT Neck1
					{
						OFFSET -0.054170 1.746240 0.172020
						CHANNELS 3 Zrotation Yrotation Xrotation
						JOINT Head
						{
							OFFSET 0.104070 1.761360 -0.123970
							CHANNELS 3 Zrotation Yrotation Xrotation
							End Site
							{
								OFFSET 0.000000 0.000000 0.000000
							}
						}
					}
				}
				JOINT LeftShoulder
				{
					OFFSET 0.000000 0.000000 0.000000
					CHANNELS 3 Zrotation Yrotation Xrotation
					JOINT LeftArm
					{
						OFFSET 3.362410 1.200890 -0.311210
						CHANNELS 3 Zrotation Yrotation Xrotation
						JOINT LeftForeArm
						{
							OFFSET 4.983000 -0.000000 -0.000000
							CHANNELS 3 Zrotation Yrotation Xrotation
							JOINT LeftHand
							{
								OFFSET 3.483560 -0.000000 -0.000000
								CHANNELS 3 Zrotation Yrotation Xrotation
								JOINT LeftFingerBase
								{
									OFFSET 0.000000 0.000000 0.000000
									CHANNELS 3 Zrotation Yrotation Xrotation
									JOINT LeftHandIndex1
									{
										OFFSET 0.715260 -0.000000 -0.000000
										CHANNELS 3 Zrotation Yrotation Xrotation
										End Site
										{
											OFFSET 0.000000 0.000000 0.000000
										}
									}
								}
								JOINT LThumb
								{
									OFFSET 0.000000 0.000000 0.000000
									CHANNELS 3 Zrotation Yrotation Xrotation
									End Site
									{
										OFFSET 0.000000 0.000000 0.000000
									}
								}
							}
						}
					}
				}
				JOINT RightShoulder
				{
					OFFSET 0.000000 0.000000 0.000000
					CHANNELS 3 Zrotation Yrotation Xrotation
					JOINT RightArm
					{
						OFFSET -3.136600 1.374050 -0.404650
						CHANNELS 3 Zrotation Yrotation Xrotation
						JOINT RightForeArm
						{
							OFFSET -5.241900 -0.000000 -0.000000
							CHANNELS 3 Zrotation Yrotation Xrotation
							JOINT RightHand
							{
								OFFSET -3.444170 -0.000000 -0.000000
								CHANNELS 3 Zrotation Yrotation Xrotation
								JOINT RightFingerBase
								{
									OFFSET 0.000000 0.000000 0.000000
									CHANNELS 3 Zrotation Yrotation Xrotation
									JOINT RightHandIndex1
									{
										OFFSET -0.622530 -0.000000 -0.000000
										CHANNELS 3 Zrotation Yrotation Xrotation
										End Site
										{
											OFFSET 0.000000 0.000000 0.000000
										}
									}
								}
								JOINT RThumb
								{
									OFFSET 0.000000 0.000000 0.000000
									CHANNELS 3 Zrotation Yrotation Xrotation
									End Site
									{
										OFFSET 0.000000 0.000000 0.000000
									}
								}
							}
						}
					}
				}
			}
		}
	}
}
MOTION
Frames: 6
Frame Time: 0.008333
1.240193 16.613112 0.730006 19.578291 69.448985 42.297982 -11.395998 3.515580 -3.929614 -5.169722 14.298349 -11.678173 -1.154907 2.317223 35.438664 0.785855 -4.597364 23.061002 -2.617300 0.000000 -76.772800 8.759348 0.938196 0.232184 14.420431 3.409142 -48.244963 2.227338 -1.450370 29.626593 -2.638421 -7.557456 -14.193379 -179.672400 0.000001 -6.206900 6.699797 -1.761895 7.040621 0.394815 -1.721847 -1.163746 -6.872088 -1.740912 1.320923 8.517497 -0.941697 1.548059 -5.108613 -0.403871 2.054495 0.000000 0.000000 0.000000 -6.248623 -0.519384 1.236789 -45.045725 -26.159111 5.455613 -1.206265 -71.120695 -0.042160 9.497731 -3.323545 -0.311713 -0.232022 0.360332 -0.000000 0.000000 0.000000 0.000000 0.000000 0.000000 0.000000 20.895242 -4.072593 0.680907 55.612129 0.182683 -12.247980 2.988869 27.535003 0.006251 0.541628 4.312566 0.018234 0.070171 -0.053812 -0.000000 0.000000 0.000000 0.000000 0.000000 0.000000 0.000000 
1.403125 16.581202 0.825268 18.298135 69.190562 40.665667 -11.467276 3.418003 -4.009919 -4.291299 14.443045 -12.045268 -1.010457 2.446749 37.730667 0.879762 -4.222965 23.346002 -2.515300 0.000000 -72.690300 8.721238 0.878167 -0.047128 15.084154 3.346202 -47.906067 2.218012 -1.701498 32.018156 -2.588202 -7.082812 -15.486189 -179.419900 0.000000 -8.411500 6.918964 -1.773459 7.395588 0.404093 -1.715815 -1.114513 -7.004414 -1.740308 1.264679 9.097841 -0.188369 1.876558 -5.204451 -0.408818 2.132496 0.000000 0.000000 0.000000 -6.214221 -0.687516 1.272854 -45.217703 -25.397036 4.996013 -1.278420 -69.921402 -0.043498 10.187987 -3.509768 -0.350229 -0.236157 0.349291 -0.000000 0.000000 0.000000 0.000000 0.000000 0.000000 0.000000 21.808608 -3.627263 0.642880 54.934619 1.233380 -13.881554 2.924594 26.175798 0.005497 -0.789018 4.518112 -0.034179 0.073506 -0.053433 -0.000000 0.000000 0.000000 0.000000 0.000000 0.000000 0.000000 
1.561588 16.557136 0.922236 16.964966 68.938331 39.016096 -11.522672 3.291094 -4.089259 -3.444469 14.449552 -12.537441 -0.859720 2.581926 40.082164 0.993149 -3.273576 23.402260 -2.125600 0.000000 -68.389100 8.669265 0.814129 -0.309176 15.782485 3.317835 -47.310688 2.236887 -1.872844 33.866827 -2.571537 -6.684558 -16.913777 -179.162500 -0.000001 -10.274801 7.110864 -1.790103 7.740271 0.410737 -1.714711 -1.065066 -7.128500 -1.745091 1.220020 9.732628 0.596548 2.219515 -5.281239 -0.412554 2.214627 0.000000 0.000000 0.000000 -6.107725 -0.838924 1.299271 -45.509124 -24.645125 4.620320 -1.356380 -68.504458 -0.045180 11.029090 -3.674796 -0.393955 -0.240635 0.336576 -0.000000 0.000000 0.000000 0.000000 0.000000 0.000000 0.000000 22.684239 -3.156898 0.607596 54.375235 2.444481 -15.616723 2.839516 24.677078 0.004379 -2.305469 4.594962 -0.096497 0.076112 -0.052967 -0.000000 0.000000 0.000000 0.000000 0.000000 0.000000 0.000000 
1.716021 16.540877 1.021513 15.649123 68.676171 37.422193 -11.558560 3.141507 -4.160914 -2.673876 14.311425 -13.149121 -0.704841 2.720469 42.447314 1.128562 -1.751082 23.220315 -1.451500 -0.000000 -64.056300 8.609297 0.748231 -0.549641 16.481653 3.314872 -46.486844 2.279024 -1.973730 35.190394 -2.587048 -6.372635 -18.395298 -178.908201 0.000000 -11.772400 7.254957 -1.811040 8.060919 0.411624 -1.718784 -1.015952 -7.240162 -1.755041 1.193407 10.397142 1.371610 2.559302 -5.335694 -0.414953 2.296421 0.000000 0.000000 0.000000 -5.943503 -0.969505 1.317786 -45.884481 -23.907773 4.347456 -1.438326 -66.876611 -0.046813 11.966752 -3.812569 -0.440493 -0.244562 0.322130 -0.000000 0.000000 0.000000 0.000000 0.000000 0.000000 0.000000 23.485663 -2.689867 0.574930 53.979231 3.825980 -17.443583 2.731139 23.077532 0.002861 -4.007654 4.564451 -0.164617 0.077766 -0.052973 -0.000000 0.000000 0.000000 0.000000 0.000000 0.000000 0.000000 
1.867070 16.532272 1.123713 14.421837 68.389652 35.957955 -11.572826 2.976205 -4.217663 -2.019341 14.027300 -13.873655 -0.548349 2.858218 44.777570 1.289300 0.290988 22.803271 -0.530600 0.000000 -59.864000 8.548077 0.683076 -0.763386 17.144120 3.329590 -45.469475 2.336750 -2.013409 36.017876 -2.628738 -6.148654 -19.834444 -178.665600 0.000000 -12.870201 7.331807 -1.834434 8.341662 0.403274 -1.727582 -0.971094 -7.337475 -1.769531 1.181372 11.072064 2.147236 2.894231 -5.365037 -0.416015 2.377726 0.000000 0.000000 0.000000 -5.742494 -1.075232 1.337589 -46.300774 -23.189050 4.203463 -1.524691 -65.044866 -0.047961 12.928377 -3.915601 -0.485843 -0.247258 0.306015 -0.000000 0.000000 0.000000 0.000000 0.000000 0.000000 0.000000 24.182455 -2.197978 0.543530 53.792131 5.287074 -19.357579 2.595956 21.499611 0.000882 -5.863460 4.442015 -0.233241 0.078077 -0.053805 0.000000 0.000000 0.000000 0.000000 0.000000 0.000000 0.000000 
2.015365 16.531142 1.229064 13.328095 68.068405 34.673340 -11.566180 2.800719 -4.254730 -1.502637 13.605768 -14.706921 -0.393780 2.990992 47.029211 1.477122 2.747193 22.158073 0.567700 -0.000000 -55.889500 8.490040 0.620612 -0.945733 17.742495 3.362943 -44.295549 2.401880 -1.999979 36.382351 -2.687942 -6.009835 -21.133225 -178.444000 0.000000 -13.551300 7.333068 -1.858124 8.570740 0.384737 -1.740258 -0.929981 -7.417264 -1.787074 1.191895 11.724479 2.857473 3.200741 -5.369804 -0.415834 2.452289 0.000000 0.000000 0.000000 -5.524383 -1.156067 1.358266 -46.725907 -22.486636 4.200718 -1.614472 -63.034546 -0.048214 13.824305 -3.976440 -0.524706 -0.247899 0.288350 -0.000000 0.000000 0.000000 0.000000 0.000000 0.000000 0.000000 24.747875 -1.736438 0.511651 53.840086 6.869928 -21.280586 2.438902 19.968011 -0.001541 -7.839166 4.295316 -0.301066 0.077177 -0.055790 0.000000 0.000000 0.000000 0.000000 0.000000 0.000000 0.000000 
